<?xml version="1.0" encoding="utf-8" ?><svg xmlns="http://www.w3.org/2000/svg" xmlns:xlink="http://www.w3.org/1999/xlink" width="895" height="790" viewBox="0 0 895 790"><clipPath id="cl_6"><rect x="0.00039672852" width="895" height="790"/></clipPath><g clip-path="url(#cl_6)"><path fill="#000000" transform="matrix(1.29522 0 0 1.29508 -160.607 -50.5082)" d="M572.223 238.862C595.71 238.337 620.685 238.76 644.286 238.761C637.898 255.347 626.478 278.558 618.835 295.193L517.039 521.801C496.079 521.864 475.12 521.75 454.163 521.457C442.427 492.999 428.924 463.56 416.316 435.347L327.861 239.038C352.464 239.351 377.069 239.364 401.673 239.08L447.533 347.155C460.698 378.652 472.506 409.31 486.619 440.495C495.394 423.084 503.966 401.393 511.909 383.422C532.972 335.769 551.6 286.672 572.223 238.862Z"/><path fill="#85C368" transform="matrix(1.29522 0 0 1.29508 -160.607 -50.5082)" d="M662.606 98.1073C673.049 97.6805 683.509 98.224 693.851 99.7307C740.255 106.627 781.294 134.978 772.831 186.854C765.274 233.181 729.019 262.539 695.271 291.166C685.674 299.307 676.664 308.677 666.556 316.039C671.603 306.003 678.721 296.155 684.327 286.253C709.41 241.95 715.649 191.042 667.01 161.07C648.135 149.544 618.666 146.557 597.127 146.155C546.521 145.21 497.779 158.982 450.611 176.051C436.206 181.264 421.588 186.083 407.275 191.627C482.908 133.333 566.951 101.835 662.606 98.1073Z"/><path fill="#0A8A5B" transform="matrix(1.29522 0 0 1.29508 -160.607 -50.5082)" d="M190.458 419.842C197.265 434.832 182.178 483.183 189.219 501.09C233.673 614.145 381.555 568.366 464.81 541.648C457.842 548.124 444.041 556.619 435.757 561.794C418.451 572.078 400.213 580.705 381.286 587.561C317.317 610.173 202.636 625.101 173.227 545.477C160.443 510.864 174.687 452.38 190.458 419.842Z"/></g></svg>