<?xml version="1.0" encoding="utf-8" ?><svg xmlns="http://www.w3.org/2000/svg" xmlns:xlink="http://www.w3.org/1999/xlink" width="262" height="151" viewBox="0 0 262 151"><clipPath id="cl_4"><rect x="3.4332275e-05" width="262" height="151"/></clipPath><g clip-path="url(#cl_4)"><path fill="#294155" transform="matrix(0.323857 0 0 0.324034 -51.1693 -68.6953)" d="M551.381 314.657C552.001 314.554 552.08 314.451 552.555 314.461C572.396 314.901 591.803 316.975 609.452 326.864C615.279 330.128 620.781 332.296 625.251 336.158C623.248 341.871 610.519 362.484 605.516 367.453C605.302 367.666 603.795 368.451 603.676 368.402C600.439 367.087 595.099 363.097 592.289 361.526C584.551 357.201 580.293 354.519 571.65 352.972C555.536 349.791 539.287 352.051 525.559 361.558C501.904 377.94 499.663 418.334 517.53 439.707C525.291 448.991 537.013 456.389 549.163 457.925C574.005 461.065 599.594 452.031 603.469 424.623C591.001 424.46 578.533 424.413 566.064 424.485C558.836 424.497 551.564 424.707 544.468 424.239C533.469 423.84 530.865 417.075 528.03 407.735C525.041 397.884 548.695 393.728 555.051 392.797C558.868 391.956 584.366 392.101 589.19 392.295C604.329 392.903 625.325 391.632 640.012 393.131C639.454 419.469 643.554 443.812 626.29 465.477C612.819 482.382 593.85 491.957 572.521 494.422C545.122 497.588 514.577 492.359 492.323 475.269C476.425 463.059 465.922 443.987 462.749 424.262C461.652 418.296 462.625 411.404 462.208 405.528C459.051 361.025 491.829 323.591 534.874 316.07C540.076 315.161 545.925 315.332 551.381 314.657Z"/><path fill="#FEFEFE" transform="matrix(0.323857 0 0 0.324034 -51.1693 -68.6953)" d="M547.679 316.339C552.411 315.787 561.585 315.944 566.512 316.214C590.196 317.51 604.119 323.902 623.412 336.753C620.395 343.414 608.593 361.511 604.347 367.761C591.876 359.359 581.992 352.397 566.53 350.621C551.815 348.783 535.453 351.839 523.628 361.214C500.286 379.719 498.218 418.469 516.94 440.881C535.553 463.164 570.378 466.983 592.703 448.059C601.389 440.696 604.205 433.541 605.036 422.529C592.311 422.317 544.774 425.786 536.507 420.546C531.864 417.603 530.379 409.353 529.093 404.446C534.343 399.865 538.496 398.354 545.147 396.618C555.676 394.522 571.161 394.208 582.022 393.987C600.808 393.684 619.597 393.723 638.382 394.102C638.779 419.425 642.104 444.019 624.612 465.41C594.419 503.088 526.199 500.893 490.769 472.059C456.586 444.24 453.829 379.887 482.72 346.957C500.838 326.305 521.261 318.423 547.679 316.339Z"/><path fill="#FEFEFE" transform="matrix(0.323857 0 0 0.324034 -51.1693 -68.6953)" d="M822.141 318.032C833.528 317.996 855.467 316.094 864.611 320.342C868.592 326.445 872.718 337.406 875.544 344.529L888.606 377.54L915.168 443.893C921.63 459.98 928.573 476.503 934.215 492.882C888.901 493.174 892.499 498.994 876.677 455.249C870.12 454.87 861.04 455.168 854.297 455.194C843.78 455.237 833.262 455.201 822.745 455.087C815.327 454.968 806.499 454.515 799.203 454.941C790.232 496.679 781.542 492.899 743.107 492.794C744.164 485.245 757.89 451.373 761.185 442.946L794.117 358.323C796.887 351.323 799.599 344.3 802.253 337.255C804.04 332.464 805.938 326.846 808.266 322.331C810.195 318.591 818.306 318.952 822.141 318.032ZM862.711 421.325C861.601 418.376 854.717 400.945 854.719 398.817C848.991 385.125 843.799 371.181 837.838 357.609C836.242 360.493 830.7 376.393 829.326 380.396C824.726 393.8 818.278 408.206 813.798 421.298C830.102 421.225 846.407 421.234 862.711 421.325Z"/><path fill="#576D86" transform="matrix(0.323857 0 0 0.324034 -51.1693 -68.6953)" d="M811.424 423.287C817.61 407.986 823.536 392.582 829.2 377.08C830.502 373.542 835.481 358.657 836.621 356.394L837.462 356.303L837.838 357.609C836.242 360.493 830.7 376.393 829.326 380.396C824.726 393.8 818.278 408.206 813.798 421.298C830.102 421.225 846.407 421.234 862.711 421.325C861.601 418.376 854.717 400.945 854.719 398.817C856.077 400.083 863.728 420.249 864.77 423.408C846.87 422.517 829.244 423.443 811.424 423.287Z"/><path fill="#FEFEFE" transform="matrix(0.323857 0 0 0.324034 -51.1693 -68.6953)" d="M196.786 318.046C203.963 317.868 224.065 318.687 230.447 319.79C237.616 321.029 249.268 357.879 251.829 365.027C259.082 384.934 266.13 404.915 272.972 424.966C275.26 431.796 277.635 439.823 280.139 446.567C280.32 447.055 280.531 446.94 281.26 447.15C283.838 444.792 292.153 417.599 294.052 412.003L315.317 350.958C318.219 342.753 320.938 334.059 324.714 326.332C328.568 318.443 340.304 317.297 348.103 317.677C353.152 317.923 365.267 316.756 368.514 321.478C369.097 326.761 359.47 349.764 357.104 355.907C353.809 363.833 350.647 372.542 347.814 380.649C334.703 418.158 320.053 455.365 306.769 492.783C301.809 492.791 257.824 493.587 256.979 491.773C248.276 473.09 241.376 451.914 234.076 432.531L207.275 361.235C205.221 355.747 192.374 323.367 192.667 319.705C193.978 318.338 194.699 318.54 196.786 318.046Z"/><path fill="#009C5B" transform="matrix(0.323857 0 0 0.324034 -51.1693 -68.6953)" d="M671.377 234.236C674.255 233.816 678.157 234.134 681.069 233.979C723.648 231.792 768.486 253.167 747.142 303.528C734.807 332.633 707.106 350.759 684.85 372.094C684.43 372.496 683.713 371.746 683.332 371.472C683.407 369.044 689.883 362.591 691.574 360.036C694.955 354.851 699.91 348.724 702.348 343.101C711.954 320.945 712.048 294.036 692.684 277.374C692.226 277.037 691.758 276.714 691.28 276.406C650.647 249.72 576.918 269.643 535.489 285.607C531.645 287.088 520.688 292.6 517.83 290.311L518.162 289.303C524.773 284.729 533.695 280.719 540.741 276.499C579.506 253.284 625.897 236.893 671.377 234.236Z"/><path fill="#FEFEFE" transform="matrix(0.323857 0 0 0.324034 -51.1693 -68.6953)" d="M391.495 317.508L428.03 317.484L428.088 318.337C428.585 326.226 428.333 337.832 428.31 345.807L428.21 391.093L428.119 464.114C428.098 468.847 428.966 490.686 427.183 492.709L425.39 492.754L388.223 492.757L388.14 355.824C388.025 344.943 386.194 332.26 386.848 321.76C386.971 319.782 389.804 318.346 391.495 317.508Z"/><path fill="#FEFEFE" transform="matrix(0.323857 0 0 0.324034 -51.1693 -68.6953)" d="M720.751 363.278C722.395 363.098 721.666 362.933 723.037 363.646C725.826 371.868 723.598 395.451 723.554 405.063C723.423 434.272 724.244 463.401 724.79 492.605C713.365 493.094 699.413 492.726 687.797 492.718L682.531 492.482C682.985 470.747 681.842 447.785 682.343 425.923C682.572 415.941 682.071 405.946 682.849 395.913C689.362 387.78 711.975 369.922 720.751 363.278Z"/><path fill="#009C5B" transform="matrix(0.323857 0 0 0.324034 -51.1693 -68.6953)" d="M353.796 443.384C355.041 439.734 357.408 431.154 360.339 429.1C362.612 431.452 359.163 441.898 358.26 445.146C358.246 446.511 357.265 452.935 357.054 454.959C355.993 465.767 356.006 475.983 358.141 486.669C361.847 505.226 382.062 519.711 399.228 525.234C436.024 537.071 477.904 531.09 513.805 518.727C517.037 517.614 533.584 510.033 535.85 511.413C533.397 516.453 517.524 524.659 511.778 527.243C481.544 540.781 449.175 552.337 415.523 550.442C406.258 549.92 399.402 550.72 390.022 548.027C334.633 532.127 338.978 486.014 353.796 443.384Z"/><path fill="#106B52" transform="matrix(0.323857 0 0 0.324034 -51.1693 -68.6953)" d="M353.796 443.384C355.041 439.734 357.408 431.154 360.339 429.1C362.612 431.452 359.163 441.898 358.26 445.146C358.197 443.925 358.086 437.304 358.37 436.534C356.985 438.903 355.74 441.415 353.796 443.384Z"/><path fill="#FEFEFE" transform="matrix(0.323857 0 0 0.324034 -51.1693 -68.6953)" d="M834.971 524.98C847.523 522.74 859.503 531.134 861.683 543.695C863.862 556.257 855.411 568.195 842.839 570.315C830.351 572.42 818.509 564.039 816.344 551.562C814.179 539.085 822.504 527.205 834.971 524.98ZM843.271 561.515C847.478 559.363 850.457 557.06 852.121 552.303C853.349 548.695 853.087 544.747 851.394 541.333C849.705 537.894 846.637 535.332 842.951 534.283C839.844 533.387 837.452 533.785 834.345 534.22C830.291 536.491 827.557 538.945 826.251 543.678C825.218 547.553 825.778 551.679 827.807 555.138C829.749 558.543 833.003 561.001 836.809 561.937C839.278 562.543 840.878 562.161 843.271 561.515Z"/><path fill="#FEFEFE" transform="matrix(0.323857 0 0 0.324034 -51.1693 -68.6953)" d="M680.32 615.682C682.165 615.513 687.558 617.289 688.942 618.51C693.547 622.576 693.736 625.264 694.62 630.834C692.699 635.939 692.342 635.074 689.727 639.138C687.357 642.821 693.449 647.212 694.398 649.771C694.92 651.18 694.53 650.565 695.572 652.089C698.298 651.13 708.705 618.649 713.552 616.381C720.591 613.088 730.297 644.433 731.84 648.658C732.798 650.325 732.209 652.273 730.992 653.569C725.346 655.342 723.637 648.954 722.486 645.002L709.582 645.369C708.365 647.35 705.449 652.354 703.467 652.994C702.542 653.292 690.299 654.312 690.053 654.24C684.316 652.571 682.128 644.223 676.468 641.96C674.376 642.051 675.274 641.715 673.646 642.907C673.093 646.49 672.604 653.316 668.587 654.274C662.317 651.571 664.823 623.663 665.03 616.306C669.955 615.833 675.003 616.237 680.32 615.682ZM672.755 632.979C677.055 633.009 680.605 633.243 684.693 631.779C685.406 626.269 683.157 624.945 677.997 624.729C676.229 624.669 674.46 624.656 672.692 624.69L672.755 632.979Z"/><path fill="#FEFEFE" transform="matrix(0.323857 0 0 0.324034 -51.1693 -68.6953)" d="M888.919 522.862C898.327 525.217 900.442 539.377 906.356 545.528C910.863 545.138 914.482 523.008 923.546 523.401C929.28 526.969 930.315 553.96 930.807 560.744C931.093 564.685 930.428 568.544 926.376 570.307C920.26 570.269 920.632 557.458 920.193 552.728C920.355 549.399 920.091 545.406 919.956 542.027C917.55 546.873 912.029 560.471 906.709 561.079C901.288 559.533 897.112 547.994 893.548 542.306C892.724 547.727 894.72 572.63 886.055 569.469C883.366 566.664 883.296 560.328 883.524 556.563C884.045 547.941 882.969 529.275 888.919 522.862Z"/><path fill="#FEFEFE" transform="matrix(0.323857 0 0 0.324034 -51.1693 -68.6953)" d="M767.922 615.582C789.984 614.675 794.526 641.559 778.172 652.244C776.531 653.316 772.745 654.048 770.737 654.509C761.289 654.67 753.897 649.123 751.395 639.999C750.027 635.054 750.707 629.767 753.281 625.329C756.813 619.244 761.545 617.307 767.922 615.582ZM759.017 631.281C758.657 639.339 761.181 646.131 770.541 646.091C783.973 644.9 781.973 622.993 768.904 623.339C764.366 624.601 762.285 625.491 759.823 629.811C759.547 630.297 759.278 630.787 759.017 631.281Z"/><path fill="#FEFEFE" transform="matrix(0.323857 0 0 0.324034 -51.1693 -68.6953)" d="M507.918 615.549C532.01 614.23 537.203 648.321 513.655 654.483C509.176 654.638 504.686 654.693 500.919 652.005C485.904 641.289 489.958 619.904 507.918 615.549ZM511.918 646.19C526.427 640.088 520.644 622.836 509.643 623.432C497.617 625.576 498.714 635.49 503.979 643.84C507.116 645.378 508.277 645.91 511.918 646.19Z"/><path fill="#FEFEFE" transform="matrix(0.323857 0 0 0.324034 -51.1693 -68.6953)" d="M637.653 616.153C639.422 615.102 646.678 615.471 648.913 616.206C654.153 617.93 655.167 618.89 657.732 623.597C658.056 630.982 655.153 632.026 657.899 638.516C659.226 641.651 658.969 643.52 658.925 646.938C656.876 649.637 656.188 650.762 653.235 652.466C646.691 654.204 637.637 655.276 630.996 653.779C630.923 648.419 630.226 619.859 631.769 616.862C633.613 615.954 635.534 616.174 637.653 616.153ZM638.124 646.037L646.453 646.038C648.507 645.938 648.399 645.973 650.064 644.764C652.152 640.226 647.257 637.932 643.484 638.675C640.997 638.742 640.389 638.372 638.427 639.541C637.628 641.347 638.019 643.945 638.124 646.037ZM638.096 630.528C641.24 630.508 646.78 630.669 649.654 629.991C649.988 627.846 650.177 627.562 649.281 625.711C646.363 622.964 641.982 623.377 638.113 623.602L638.096 630.528Z"/><path fill="#FEFEFE" transform="matrix(0.323857 0 0 0.324034 -51.1693 -68.6953)" d="M534.839 616.46C538.765 616.179 542.947 616.299 546.791 616.215C556.405 616.006 564.417 619.187 563.657 630.375C563.3 635.628 561.279 637.027 557.641 640.41C560.216 644 563.672 647.862 563.656 652.372C562.168 655.315 559.713 654.149 557.111 653.178C553.584 650.853 550.985 645.887 547.836 642.298C539.089 641.621 544.843 646.003 541.104 653.269C530.443 661.624 534.417 620.029 534.839 616.46ZM542.242 633.065L553.02 632.861C559.272 624.696 548.88 623.84 543.065 624.395C541.647 626.425 542.127 630.449 542.242 633.065Z"/><path fill="#FEFEFE" transform="matrix(0.323857 0 0 0.324034 -51.1693 -68.6953)" d="M317.185 616.187C327.022 615.762 331.987 615.013 337.122 624.166C337.31 627.355 337.231 629.888 337.127 633.086C335.43 636.402 334.334 637.227 332.23 639.475C329.765 642.107 340.381 650.065 336.723 654.167C332.031 655.314 330.401 653.149 327.552 649.848C323.643 644.061 323.207 641.695 316.019 641.548C315.704 646.18 316.468 651.731 312.045 653.914C305.249 652.771 307.675 622.593 308.197 616.471L317.185 616.187ZM316.019 633.462C320.225 633.328 323.465 633.29 327.646 632.581C331.944 623.66 321.523 624.265 315.961 624.145C315.9 627.322 315.803 630.286 316.019 633.462Z"/><path fill="#FEFEFE" transform="matrix(0.323857 0 0 0.324034 -51.1693 -68.6953)" d="M716.969 523.915C722.695 523.413 737.234 522.074 739.112 529.145C737.314 533.708 726.603 532.946 722.4 532.899L722.332 542.008C725.123 541.976 731.617 541.755 733.721 543.525C737.286 553.163 726.502 548.661 722.453 553.053C721.094 556.275 721.25 559.028 724.622 560.287C728.661 560.841 731.86 560.946 735.904 561.09C738.597 562.631 739.9 562.941 740.21 566.317C737.233 572.566 718.904 571.685 713.103 569.883C712.904 561.72 712.467 532.598 713.395 525.612C714.407 524.174 714.737 524.526 716.969 523.915Z"/><path fill="#FEFEFE" transform="matrix(0.323857 0 0 0.324034 -51.1693 -68.6953)" d="M779.477 524.432C784.117 523.505 797.719 526.873 795.22 533.994C790.366 537.826 775.728 532.017 770.677 539.256C769.065 541.137 767.662 547.234 768.483 549.887C773.123 564.881 781.245 562.177 793.465 558.202C795.004 557.702 796.239 558.647 797.277 559.284C797.376 560.304 797.563 563.711 796.866 564.436C773.867 588.333 743.783 548.303 768.278 529.432C771.826 526.698 775.072 525.83 779.477 524.432Z"/><path fill="#FEFEFE" transform="matrix(0.323857 0 0 0.324034 -51.1693 -68.6953)" d="M624.594 523.344C630.362 523.219 642.573 522.435 645.719 528.62C644.812 533.874 633.295 532.829 629.016 532.807L628.769 542.044C632.564 541.825 639.052 541.279 641.114 545.199C640.408 550.361 632.738 550.644 628.666 551.219C628.558 553.751 628.025 558.849 629.148 560.898L630.422 561.116C634.621 561.041 638.821 561.023 643.02 561.061C645.5 562.894 646.627 563.394 647.286 566.306C645.151 573.277 626.163 572.189 620.565 571.023C620.071 564.489 619.755 530.302 620.934 524.856C622.081 523.476 622.342 523.843 624.594 523.344Z"/><path fill="#FEFEFE" transform="matrix(0.323857 0 0 0.324034 -51.1693 -68.6953)" d="M232.511 615.746C235.844 616.465 237.131 619.493 236.903 622.614C236.422 629.194 239.846 651.262 231.947 653.214C226.246 651.852 218.272 638.082 214.027 632.458L213.064 632.368C212.551 640.683 215.705 646.535 210.874 653.863L208.692 653.939C207.476 653.232 206.381 652.293 206.089 650.828C204.757 644.139 201.743 618.977 209.887 616.845C215.729 618.093 224.167 633.439 228.725 639.335C229.123 632.745 228.034 626.244 229.048 619.801C229.448 617.262 230.59 616.964 232.511 615.746Z"/><path fill="#FEFEFE" transform="matrix(0.323857 0 0 0.324034 -51.1693 -68.6953)" d="M460.09 616.453C467.177 616.151 473.655 616.46 480.73 616.748C481.845 617.414 482.685 617.948 483.7 618.781C486.659 621.224 488.515 624.752 488.851 628.575C489.14 631.961 488.043 635.319 485.81 637.881C482.515 641.624 478.961 642.433 474.335 642.717C471.821 643.083 470.739 643.079 468.245 643.06C468.478 647.097 468.56 652.915 464.244 654.891C457.592 653.004 459.881 622.773 460.09 616.453ZM468.327 634.532C471.038 634.427 476.824 634.444 479.114 633.611C479.613 630.504 480.159 628.976 478.615 626.368C475.457 624.021 472.144 624.624 468.079 624.661C468.119 627.701 468.066 631.579 468.327 634.532Z"/><path fill="#FEFEFE" transform="matrix(0.323857 0 0 0.324034 -51.1693 -68.6953)" d="M369.298 615.78C370.436 615.918 371.332 616.106 372.448 616.324C375.403 619.386 379.057 664.66 364.587 649.719C360.587 645.589 355.419 636.372 351.18 631.252C351.488 636.41 353.017 648.114 349.911 652.542C348.826 654.088 347.509 653.955 345.85 654.189C345.297 653.735 344.029 652.894 343.933 652.209C342.988 645.47 340.631 619.822 347.615 616.532C352.34 617.113 363.052 634.365 367.081 639.258C367.059 638.905 367.039 638.552 367.021 638.199C366.752 632.826 365.811 619.65 369.298 615.78Z"/><path fill="#FEFEFE" transform="matrix(0.323857 0 0 0.324034 -51.1693 -68.6953)" d="M794.151 616.145C809.312 615.661 824.697 613.405 820.728 634.704C818.606 638.249 815.187 641.11 811.162 642.204L800.927 642.436C800.952 645.415 801.177 649.219 800.083 652.034C799.371 653.866 795.825 653.578 794.487 652.56C793.152 648.785 792.798 619.377 794.151 616.145ZM801.521 633.982L810.507 634.105C818.36 627.445 810.119 624.267 803.252 624.475L801.645 624.883C800.316 627.324 801.167 631.115 801.521 633.982Z"/><path fill="#FEFEFE" transform="matrix(0.323857 0 0 0.324034 -51.1693 -68.6953)" d="M276.858 616.163C284.019 616.071 291.18 616.075 298.341 616.175C299.23 617.301 299.892 618.325 300.677 619.513C300.867 621.679 301.159 620.775 300.019 622.387C295.182 624.789 285.193 622.176 283.391 624.416C283.386 626.861 283.238 627.352 284.184 629.515C288.411 633.822 295.118 627.643 299.241 632.629C301.68 643.316 288.69 636.103 283.755 639.668C283.095 640.145 283.057 642.126 282.92 643.048C283.137 644.302 283.193 644.308 283.771 645.461C290.021 648.213 305.149 641.279 301.936 652.312C297.928 656.456 280.749 656.098 276.325 652.174C273.314 646.56 274.558 626.952 274.958 619.772C275.072 617.72 275.504 617.191 276.858 616.163Z"/><path fill="#FEFEFE" transform="matrix(0.323857 0 0 0.324034 -51.1693 -68.6953)" d="M389.239 616.152C394.434 616.42 409.151 613.897 406.423 622.414C402.58 626.022 392.123 621.14 389.316 624.679C388.003 635.908 398.776 628.79 405.04 632.006C406.948 632.986 405.701 636.99 404.884 637.563C401.459 639.961 395.416 639.17 391.414 639.25C388.52 639.235 388.078 645.361 390.93 646.035C396.417 645.945 402.775 645.4 407.918 647.01C409.065 648.439 408.71 647.96 408.909 650.094C406.084 657.729 384.906 656.172 383.102 652.497C379.275 644.698 380.67 625.342 381.322 616.654C383.738 616.397 386.763 616.296 389.239 616.152Z"/><path fill="#576D86" transform="matrix(0.323857 0 0 0.324034 -51.1693 -68.6953)" d="M572.765 523.16C579.86 522.899 593.371 521.617 599.785 525.505C602.564 527.19 601.287 532.078 597.69 532.545C595.179 532.871 592.554 532.947 589.91 533.038C590.252 542.979 590.008 554.205 589.98 564.254C589.808 565.447 589.363 567.882 588.459 568.694C574.76 580.996 578.427 541.413 578.433 534.299C571.824 532.816 562.317 529.217 572.765 523.16Z"/><path fill="#FEFEFE" transform="matrix(0.323857 0 0 0.324034 -51.1693 -68.6953)" d="M571.688 525.478C577.781 524.99 591.626 524.609 597.764 526.446C598.705 526.727 598.937 527.97 599.306 528.935C598.606 533.465 592.218 532.18 588.294 532.15C588.543 542.111 588.55 552.077 588.315 562.039C588.316 565.809 587.946 568.303 584.784 570.664C577.477 570.612 579.422 538.153 579.57 532.193C575.937 532.203 571.81 532.619 569.876 529.015C570.255 526.666 570.015 527.491 571.688 525.478Z"/><path fill="#FEFEFE" transform="matrix(0.323857 0 0 0.324034 -51.1693 -68.6953)" d="M924.931 616.039C930.542 615.846 942.828 649.492 940.735 653.123C939.168 654.094 938.88 653.943 936.933 653.831C933.758 652.266 932.696 648.655 931.312 645.404L925.332 645.506L917.683 645.384C915.833 649.342 914.705 653.337 910.039 654.226C908.127 653.651 908.882 654.196 907.754 652.462C906.695 645.341 916.271 626.788 919.936 620.007C921.251 617.575 922.36 616.914 924.931 616.039ZM926.301 636.998C928.562 635.281 925.33 630.284 923.884 629.623C922.993 631.68 921.41 634.418 921.836 636.395C923.466 637.432 924.1 637.042 926.301 636.998Z"/><path fill="#FEFEFE" transform="matrix(0.323857 0 0 0.324034 -51.1693 -68.6953)" d="M670.203 523.112C671.892 523.096 672.694 522.901 674.074 523.848C679.382 530.648 677.861 552.094 676.838 560.754C681.407 560.774 690.405 559.958 693.221 563.856C695.163 566.545 694.253 568.914 691.697 570.556C685.559 570.642 674.732 573.507 669.768 569.064C665.812 561.229 668.534 532.321 670.203 523.112Z"/><path fill="#FEFEFE" transform="matrix(0.323857 0 0 0.324034 -51.1693 -68.6953)" d="M885.787 616.107C890.6 615.65 904.878 616.254 902.047 624.452C899.614 626.504 891.863 624.084 888.063 624.604C877.247 626.086 876.697 640.351 885.212 645.147C889.281 647.439 895.263 645.333 899.523 644.22L902.097 644.968C904.916 648.222 902.494 650.25 900.162 653.001C894.408 654.123 889.274 655.492 883.496 653.193C873.29 649.133 869.352 636.977 873.472 627.167C876.018 621.105 879.947 618.522 885.787 616.107Z"/><path fill="#FEFEFE" transform="matrix(0.323857 0 0 0.324034 -51.1693 -68.6953)" d="M602.741 616.198C606.368 615.977 612.487 618 610.255 622.32C606.406 624.569 597.044 623.559 592.071 623.476L592.025 631.554C595.705 631.297 611.229 630.347 608.993 637.248C605.634 640.339 603.387 639.974 598.969 639.9C597.599 639.845 593.305 639.494 592.95 640.562C591.642 644.489 593.628 648.59 590.586 652.139C588.732 653.147 588.557 653.035 586.358 652.821C582.262 650.395 583.078 621.736 584.96 617.37C587.935 615.565 598.475 616.319 602.741 616.198Z"/><path fill="#FEFEFE" transform="matrix(0.323857 0 0 0.324034 -51.1693 -68.6953)" d="M253.504 614.987C257.293 614.693 272.429 615.101 270.019 621.361C266.737 624.24 264.187 623.843 259.85 623.958C260.095 632.95 261.487 646.753 258.14 654.513C256.08 654.849 255.769 655.059 254.045 654.131C249.325 648.935 251.115 630.972 251.357 623.854C248.393 623.667 241.655 623.422 241.693 619.539C243.351 617.504 245.091 616.419 247.714 615.97L253.504 614.987Z"/><path fill="#FEFEFE" transform="matrix(0.323857 0 0 0.324034 -51.1693 -68.6953)" d="M414.673 615.612C419.872 615.5 436.711 613.722 440.049 618.331C440.51 620.635 440.742 620.085 440.049 621.998C437.411 624.084 433.881 623.527 430.438 623.457L430.591 647.815C430.854 650.695 430.176 652.693 427.686 654.151C418.658 654.371 421.74 629.903 421.887 623.774C418.222 623.672 412.532 624.516 411.857 620.005C412.534 617.704 412.985 617.451 414.673 615.612Z"/><path fill="#FEFEFE" transform="matrix(0.323857 0 0 0.324034 -51.1693 -68.6953)" d="M831.185 615.568C836.66 615.344 850.906 613.853 853.142 619.886C852.987 622.093 853.396 621.185 852.005 622.759C849.602 623.938 845.638 623.784 842.84 623.86C843.272 634.057 842.926 639.046 841.966 649.218C841.992 651.272 841.377 652.477 839.844 653.748C837.812 654.291 838.768 654.35 836.873 653.688C833.02 649.258 834.426 631.325 834.354 624.386L833.194 624.213C829.083 623.569 827.295 623.754 824.803 620.36C824.508 616.566 828.213 616.221 831.185 615.568Z"/><path fill="#FEFEFE" transform="matrix(0.323857 0 0 0.324034 -51.1693 -68.6953)" d="M616.761 615.434C618.816 615.346 619.138 615.228 621.013 615.912C624.507 619.433 624.395 649.507 621.717 654.499C621.32 654.421 620.924 654.337 620.53 654.245C619.087 653.905 616.877 653.151 616.338 651.73C613.534 644.342 614.646 622.09 616.761 615.434Z"/><path fill="#FEFEFE" transform="matrix(0.323857 0 0 0.324034 -51.1693 -68.6953)" d="M860.37 615.068C861.126 615.287 863.221 615.938 863.561 616.706C867.183 624.873 865.299 639.771 865.3 648.924C865.3 652.098 863.807 653.058 862.257 654.297C861.357 654.009 859.698 653.697 859.241 652.806C856.333 647.14 856.131 618.606 860.37 615.068Z"/><path fill="#FEFEFE" transform="matrix(0.323857 0 0 0.324034 -51.1693 -68.6953)" d="M193.028 615.024C197.185 616.588 197.854 619.756 197.75 624.053C197.527 633.265 198.592 643.319 196.444 652.268C196.444 652.27 194.944 653.903 194.797 654.062C193.278 653.76 193.247 653.796 191.795 653.053C188.75 648.766 189.278 638.861 189.356 633.724C189.446 627.854 188.776 619.455 193.028 615.024Z"/></g></svg>