<?xml version="1.0" encoding="utf-8" ?><svg xmlns="http://www.w3.org/2000/svg" xmlns:xlink="http://www.w3.org/1999/xlink" width="289" height="164" viewBox="0 0 289 164"><clipPath id="cl_3"><rect x="-2.2888184e-05" width="289" height="164"/></clipPath><g clip-path="url(#cl_3)"><path fill="#054D9A" transform="matrix(0.996552 0 0 0.993939 -40.8586 -38.7636)" d="M277.177 74.3342C280.876 73.9891 291.893 74.0891 295.371 74.7012C298.284 78.4018 304.224 94.8329 306.419 100.199L314.904 120.967C317.079 126.281 319.335 131.541 321.16 136.984C316.612 137.093 309.199 137.494 305.374 135.739C302.395 131.32 302.523 127.967 300.169 123.29C298.507 123.118 296.884 123.123 295.216 123.102C287.502 123.031 279.462 123.235 271.787 122.995C267.468 139.038 265.812 136.765 251.053 136.873C252.562 131.109 255.294 125.057 257.544 119.469C263.299 105.172 268.887 90.8086 274.633 76.5084C275.198 75.1017 275.864 74.8451 277.177 74.3342ZM276.198 111.776C279.655 111.694 283.325 111.544 286.763 111.534C290.05 111.522 292.708 111.666 295.969 111.882C294.368 108.432 286.477 88.1118 285.702 87.3499C283.877 92.6201 281.992 97.7722 279.879 102.934C278.702 105.811 277.608 109.025 276.198 111.776Z"/><path fill="#054D9A" transform="matrix(0.996552 0 0 0.993939 -40.8586 -38.7636)" d="M179.882 73.1067C187.742 72.9141 193.775 72.9773 200.878 76.7609C203.212 78.0043 205.41 79.4333 207.756 80.6187C205.28 84.3947 203.103 88.2644 200.499 91.9781C195.937 89.6744 193.68 86.8738 187.932 86.0435C181.939 85.2224 176.683 85.2774 171.422 88.7798C162.324 95.102 160.452 107.283 166.625 116.527C174.269 127.976 191.871 128.443 199.479 116.742C200.38 115.356 200.573 113.367 200.807 111.684C198.332 111.413 196.103 111.665 193.619 111.725C189.942 111.779 186.265 111.814 182.588 111.828C178.798 111.843 177.204 112.28 173.896 110.243C173.348 108.27 172.937 107.088 172.18 105.186C174.602 103.394 175.539 102.995 178.319 102.103C187.665 100.774 202.701 101.332 212.733 101.284L212.798 102.323C213.365 111.758 214.1 120.033 207.2 127.704C195.329 140.904 170.544 140.089 157.602 128.994C150.694 122.85 147.926 113.623 148.01 104.634C148.185 86.0261 161.906 73.913 179.882 73.1067Z"/><path fill="#054D9A" transform="matrix(0.996552 0 0 0.993939 -40.8586 -38.7636)" d="M49.1821 74.2886C53.1956 74.2525 59.7523 73.9879 63.5451 74.658C68.2292 79.4652 80.5784 120.407 81.7149 120.984C82.8043 120.367 83.6642 115.73 84.2014 114.265C88.703 101.984 92.6727 89.4346 97.4786 77.2754C98.5786 74.4923 103.048 73.9872 105.558 74.184C107.057 74.3015 112.982 73.9167 113.652 75.3375C113.678 77.8587 111.09 83.8849 109.989 86.2371C108.615 89.1999 106.497 95.5539 105.221 98.9999L96.2182 123.187C95.0106 126.466 92.3466 134.315 90.5378 136.951C84.8856 137.074 78.4766 136.818 72.7737 136.698C71.0419 133.152 68.9865 127.176 67.4727 123.242L57.6639 97.5765C56.0439 93.2939 54.3952 89.0221 52.718 84.7615C51.5619 81.789 49.7114 77.2995 49.1821 74.2886Z"/><path fill="#019C5F" transform="matrix(0.996552 0 0 0.993939 -40.8586 -38.7636)" d="M181.924 56.5376C197.295 47.5211 222.887 40.1766 240.884 44.2036C250.546 46.3656 257.092 53.7528 254.307 63.9464C251.415 74.5326 243.036 81.9299 235.005 88.8509C234.615 88.5921 234.121 88.1979 233.736 87.9103C234.61 86.6481 235.409 85.3349 236.126 83.9777C241.373 73.8957 240.233 61.3893 229.22 56.4125C216.258 50.5555 195.382 54.5934 182.819 58.9594C181.083 59.6703 179.097 60.435 177.412 61.2055C176.522 60.7114 176.377 60.537 175.691 59.8241C177.193 58.8831 180.317 57.1725 181.924 56.5376Z"/><path fill="#3F967B" transform="matrix(0.996552 0 0 0.993939 -40.8586 -38.7636)" d="M175.691 59.8241C177.193 58.8831 180.317 57.1725 181.924 56.5376L181.807 56.704C181.326 57.3782 181.235 57.4838 180.574 57.97L180.391 58.4687C181.462 59.1193 181.693 58.7089 182.819 58.9594C181.083 59.6703 179.097 60.435 177.412 61.2055C176.522 60.7114 176.377 60.537 175.691 59.8241Z"/><path fill="#054D9A" transform="matrix(0.996552 0 0 0.993939 -40.8586 -38.7636)" d="M121.271 74.2157C123.524 74.6375 132.181 74.5041 135.006 74.5035C134.812 89.725 135.174 119.776 134.855 136.3C134.851 136.486 134.278 136.643 134.02 136.743C129.653 136.72 125.286 136.736 120.919 136.79C121.003 135.459 120.964 134.071 120.95 132.734C120.749 113.774 121.491 94.793 120.477 75.8486C120.426 74.8973 120.672 74.8381 121.271 74.2157Z"/><path fill="#054D9A" transform="matrix(0.996552 0 0 0.993939 -40.8586 -38.7636)" d="M243.421 90.1819C243.786 90.6622 243.97 91.1666 243.964 91.7882C243.825 106.777 244.179 121.896 243.983 136.875C239.586 136.73 234.043 136.953 229.561 137.009C228.723 136.019 229.131 105.758 229.31 102.268C231.459 99.2021 240.116 92.8014 243.421 90.1819Z"/><path fill="#019C5F" transform="matrix(0.996552 0 0 0.993939 -40.8586 -38.7636)" d="M106.765 124.019C107.582 125.12 107.933 125.182 108.777 126.032C108.952 132.389 109.438 138.624 114.607 143.127C127.16 154.063 146.228 152.598 161.036 148.663C161.786 148.539 165.106 147.406 165.99 147.119C166.269 148.327 166.085 148.085 167.238 148.68C165.237 149.723 163.568 150.534 161.509 151.452C159.971 152.289 156.424 153.503 154.703 154.052C144.267 157.382 131.33 159.54 120.521 156.779C115.221 155.426 110.228 151.734 107.612 146.928C103.933 140.169 104.706 131.178 106.765 124.019Z"/><path fill="#3F967B" transform="matrix(0.996552 0 0 0.993939 -40.8586 -38.7636)" d="M161.036 148.663C161.786 148.539 165.106 147.406 165.99 147.119C166.269 148.327 166.085 148.085 167.238 148.68C165.237 149.723 163.568 150.534 161.509 151.452C161.677 150.5 162.446 150.155 163.216 149.632L163.102 149.319C162.343 148.676 162.003 148.722 161.036 148.663Z"/><path fill="#054D9A" transform="matrix(0.996552 0 0 0.993939 -40.8586 -38.7636)" d="M284.644 148.683C289.192 147.75 293.631 150.699 294.533 155.253C295.436 159.808 292.457 164.227 287.897 165.099C283.379 165.962 279.012 163.018 278.118 158.506C277.224 153.995 280.138 149.607 284.644 148.683ZM287.331 162.317C292.311 160.08 293.315 156.218 289.373 152.188C287.732 151.574 287.12 151.35 285.325 151.504C283.567 152.276 282.439 152.893 281.673 154.777C281.062 156.264 281.097 157.938 281.771 159.398C282.626 161.286 285.359 163.022 287.331 162.317Z"/><path fill="#11539C" transform="matrix(0.996552 0 0 0.993939 -40.8586 -38.7636)" d="M229.768 194.504C229.025 193.137 228.124 191.009 226.45 190.795C224.432 191.782 225.275 194.37 223.719 195.655L223.29 195.464C222.922 194.999 222.331 194.142 222.42 193.577C222.728 191.629 221.799 183.548 222.518 182.303C223.937 181.501 228.081 181.892 229.597 182.412C236.366 184.735 231.665 188.056 230.884 190.532C230.925 192.441 232.341 194.152 234.304 194.186L234.438 193.961C235.906 191.427 238.17 181.12 241.571 182.157C242.956 183.567 247.5 193.838 246.466 195.781C244.39 195.926 243.951 193.527 243.453 191.996C241.56 192.014 240.318 192.06 238.428 192.263C237.328 194.32 237.319 194.86 235.232 195.792C232.558 195.748 232.044 195.811 229.768 194.504ZM224.97 188.573C226.722 188.53 228.197 188.651 229.762 187.806C230.225 187.012 230.322 186.889 230.225 185.987C229.108 184.33 226.864 184.548 225.011 184.48L224.97 188.573Z"/><path fill="#054D9A" transform="matrix(0.996552 0 0 0.993939 -40.8586 -38.7636)" d="M304.639 148.343C308.522 149.244 308.724 154.437 311.247 156.55C313.057 156.566 314.434 147.208 317.803 148.602C319.521 150.551 321.275 164.52 318.438 165.365C316.975 164.204 316.781 159.837 316.619 158.057C316.474 157.621 316.434 154.581 316.42 153.993C315.438 156.611 312.393 165.487 309.438 160.236C308.456 158.492 307.309 156.214 306.305 154.397C306.092 156.851 306.71 164.861 303.728 164.819C302.421 163.469 303.272 150.23 304.639 148.343Z"/><path fill="#054D9A" transform="matrix(0.996552 0 0 0.993939 -40.8586 -38.7636)" d="M259.26 181.84C262.972 180.996 266.668 183.305 267.539 187.01C268.411 190.714 266.13 194.428 262.432 195.327C260.698 195.748 258.869 195.485 257.325 194.591C254.86 193.164 253.519 190.373 253.947 187.556C254.374 184.739 256.482 182.471 259.26 181.84ZM261.476 193.074C266.257 192.236 265.865 183.983 260.763 184.006C259.157 184.422 258.092 184.774 257.175 186.364C256.512 187.489 256.357 188.842 256.75 190.087C257.524 192.47 259.235 193.05 261.476 193.074Z"/><path fill="#11539C" transform="matrix(0.996552 0 0 0.993939 -40.8586 -38.7636)" d="M164.805 181.784C172.458 181.385 172.931 186.245 171.841 192.362C170.094 194.585 169.238 194.894 166.553 195.481C165.473 195.495 163.351 195.056 162.206 194.855C157.045 190.43 157.902 183.282 164.805 181.784ZM166.979 193.198C171.258 190.349 170.863 184.119 164.889 184.048C160.563 185.271 160.365 192.316 166.979 193.198Z"/><path fill="#054D9A" transform="matrix(0.996552 0 0 0.993939 -40.8586 -38.7636)" d="M210.265 182.03C214.882 181.891 222.243 181.061 218.672 188.123C220.428 190.565 220.864 191.609 219.232 194.31C217.686 195.26 211.512 195.903 210.12 195.067C209.757 193.672 209.819 183.268 210.265 182.03ZM217.066 192.962C217.344 192.06 217.477 191.785 217.324 190.821C216.241 189.193 214.092 189.538 212.242 189.49C212.02 190.657 211.674 191.6 212.313 192.571C213.492 193.361 215.57 193.034 217.066 192.962ZM216.193 187.061C216.972 186.724 216.932 186.821 217.445 186.147C216.844 183.917 214.586 183.953 212.71 184.075C212.092 184.87 212.047 184.982 211.837 185.968C212.512 187.781 214.583 187.278 216.193 187.061Z"/><path fill="#11539C" transform="matrix(0.996552 0 0 0.993939 -40.8586 -38.7636)" d="M91.7871 182.01C94.5739 181.853 97.5633 181.98 100.298 182.523C103.243 186.482 102.25 187.575 99.137 190.776C100.025 191.821 102.609 194.317 101.503 195.561C100.644 195.824 99.9083 195.509 99.0478 195.253C97.9053 194.152 96.0578 190.291 94.1094 190.794C93.3107 192.02 94.9851 194.768 92.2083 195.471L91.7341 195.188C90.768 193.345 90.518 183.761 91.7871 182.01ZM93.9423 188.211C95.9711 188.414 96.7333 188.724 98.5541 187.804C99.0492 187.162 99.0507 187.056 99.0356 186.239C98.0185 184.425 95.6157 184.57 93.7032 184.417C93.6652 185.825 93.787 186.803 93.9423 188.211Z"/><path fill="#11539C" transform="matrix(0.996552 0 0 0.993939 -40.8586 -38.7636)" d="M175.477 181.802C180.479 181.871 186.607 181.279 184.859 188.39L182.498 190.196C183.425 191.43 185.967 194.341 184.942 195.766C184.1 195.801 183.374 195.248 182.74 194.764C181.587 193.493 179.739 190.602 177.912 190.572C177.102 191.861 178.439 194.798 176.068 195.453C174.184 194.071 175.334 186.616 174.758 184.323C174.553 183.507 174.88 182.439 175.477 181.802ZM181.557 188.01C182.146 187.382 182.259 187.285 182.53 186.476C182.2 184.383 178.985 184.443 177.245 184.432C177.142 185.55 176.923 186.773 177.308 187.804C178.548 189.164 179.91 188.442 181.557 188.01Z"/><path fill="#11539C" transform="matrix(0.996552 0 0 0.993939 -40.8586 -38.7636)" d="M147.336 181.938C150.041 181.983 152.744 182.1 155.443 182.288C157.196 183.942 157.347 184.317 158.055 186.655C157.072 190.199 156.091 190.635 152.558 191.2L150.006 190.93C150.048 192.381 150.289 193.945 149.532 195.127C148.793 195.631 149.063 195.607 148.326 195.558C146.735 194.185 146.773 183.628 147.336 181.938ZM150.003 188.725L154.344 188.169C155.017 187.66 155.051 187.548 155.312 186.738C154.769 184.574 152.243 184.52 150.34 184.225C149.87 185.26 149.99 187.479 150.003 188.725Z"/><path fill="#11539C" transform="matrix(0.996552 0 0 0.993939 -40.8586 -38.7636)" d="M264.147 148.807C266.097 148.754 269.827 149.074 270.414 151.419C269.23 152.732 264.966 151.473 262.697 152.477C259.893 153.718 259.443 156.432 260.452 159.199C261.98 163.39 266.409 162.307 269.666 161.043C270.764 161.692 270.864 162.507 270.41 163.547C267.999 165.765 263.706 165.934 260.942 164.289C257.045 161.969 255.971 156.18 258.147 152.374C259.395 150.189 261.849 149.324 264.147 148.807Z"/><defs><linearGradient id="gradient_0" gradientUnits="userSpaceOnUse" x1="115.48653" y1="184.7653" x2="103.72359" y2="192.42342"><stop offset="0" stop-color="#11438B"/><stop offset="1" stop-color="#1E5C93"/></linearGradient></defs><path fill="url(#gradient_0)" transform="matrix(0.996552 0 0 0.993939 -40.8586 -38.7636)" d="M114.284 181.603L114.683 181.748C116.097 183.515 115.876 192.986 114.576 195.092C112.338 196.37 108.063 188.639 106.472 186.678C106.432 189.37 107.518 193.767 105.673 195.843C103.599 194.882 103.93 189.951 103.872 187.94C103.818 186.076 103.715 183.448 105.393 182.314C108.592 182.629 110.319 189.342 112.681 190.036C114.448 187.78 111.153 184.3 114.284 181.603Z"/><path fill="#054D9A" transform="matrix(0.996552 0 0 0.993939 -40.8586 -38.7636)" d="M63.0863 181.333C64.4501 181.8 64.7699 183.392 64.6268 184.661C64.355 187.073 65.9807 194.905 62.575 195.226C60.6062 194.423 57.2959 188.359 55.5106 185.974C55.5016 188.834 55.8142 192.503 55.4699 195.236C54.8164 195.499 54.853 195.486 54.1502 195.388C52.5115 194.057 52.7147 182.256 54.6631 181.866C57.2552 183.055 59.9549 188.456 62.025 190.76L62.2303 190.985C62.1936 187.51 61.0807 183.772 63.0863 181.333Z"/><path fill="#054D9A" transform="matrix(0.996552 0 0 0.993939 -40.8586 -38.7636)" d="M206.074 165.23C206.037 162.947 205.799 150.227 206.489 148.865C208.069 148.162 214.32 148.437 215.517 150.098L215.297 150.514C213.273 151.724 211.555 150.987 208.818 151.291C208.645 152.426 208.612 153.811 208.554 154.979C210.15 155.039 212.364 154.916 213.385 156.247L213.29 156.751C211.875 157.882 210.275 157.533 208.439 157.453C208.821 159.324 208.891 159.915 208.656 161.807C209.688 162.897 213.224 161.376 215.571 163.01C216.387 165.631 212.834 165.32 211.183 165.317C209.487 165.313 207.772 165.254 206.074 165.23Z"/><path fill="#11539C" transform="matrix(0.996552 0 0 0.993939 -40.8586 -38.7636)" d="M215.571 163.01C213.565 162.6 209.48 164.059 208.494 162.38L208.656 161.807C209.688 162.897 213.224 161.376 215.571 163.01Z"/><path fill="#11539C" transform="matrix(0.996552 0 0 0.993939 -40.8586 -38.7636)" d="M270.195 181.708C272.002 182.006 275.099 181.814 276.619 182.226C281.924 183.664 280.943 190.733 275.062 190.975C273.999 190.978 272.908 191.083 271.846 191.163C271.864 193.073 272.133 193.463 271.534 195.301L271.114 195.439C269.786 193.925 269.383 183.346 270.195 181.708ZM276.37 188.447C279.806 185.303 274.676 184.477 272.541 184.298C271.716 185.211 271.513 187.02 272.588 187.854C273.913 188.882 274.847 188.634 276.37 188.447Z"/><path fill="#054D9A" transform="matrix(0.996552 0 0 0.993939 -40.8586 -38.7636)" d="M118.375 181.842C120.264 182.071 127.602 181.4 127.92 183.715C126.743 184.549 122.136 184.143 120.62 183.926C120.722 184.922 120.855 185.915 121.022 186.902C122.559 188.666 126.508 185.757 127.226 188.852L126.922 189.277C124.706 190.575 122.908 189.399 120.731 189.809C121.002 190.858 120.944 191.756 120.952 192.837C122.525 193.654 128.183 192.116 128.344 194.23C128.062 194.824 127.728 195.298 127.046 195.434C125.187 195.804 120.205 196.193 118.6 195.403C117.878 194.195 117.685 182.853 118.375 181.842Z"/><path fill="#11539C" transform="matrix(0.996552 0 0 0.993939 -40.8586 -38.7636)" d="M314.751 185.993C315.588 184.482 316.115 182.999 317.71 182.412C318.578 182.47 319.178 182.62 319.641 183.473C321.121 186.195 322.096 189.425 323.298 192.275C322.065 192.419 322.05 192.506 321.214 193.338C321.037 192.864 320.804 192.674 320.461 192.308C319.605 191.864 318.419 191.982 317.426 191.989C313.483 192.478 315.07 195.062 312.505 195.681C311.778 195.337 311.998 195.56 311.616 194.889C311.911 193.035 313.987 188.134 314.751 185.993Z"/><path fill="#054D9A" transform="matrix(0.996552 0 0 0.993939 -40.8586 -38.7636)" d="M317.426 191.989C313.483 192.478 315.07 195.062 312.505 195.681C311.778 195.337 311.998 195.56 311.616 194.889C311.911 193.035 313.987 188.134 314.751 185.993C315.713 186.037 316.241 185.953 317 186.516C317.242 187.469 316.093 188.476 316.188 189.014C316.401 190.226 318.266 189.726 317.63 191.533L317.817 191.585L317.426 191.989Z"/><path fill="#054D9A" transform="matrix(0.996552 0 0 0.993939 -40.8586 -38.7636)" d="M187.921 148.852C191.135 148.723 196.301 148.205 198.994 149.81L199.05 150.192C197.701 151.272 195.949 151.07 194.307 151.006C194.619 153.681 194.498 159.244 194.509 162.217C194.546 163.527 194.136 165.888 192.331 165.361C190.627 163.367 191.178 154.355 191.299 151.405C190.117 151.266 188.494 151.434 187.67 150.928C187.654 150.304 187.594 149.878 187.509 149.258L187.921 148.852Z"/><path fill="#054D9A" transform="matrix(0.996552 0 0 0.993939 -40.8586 -38.7636)" d="M81.9917 189.692C80.2329 194.819 87.4424 191.827 89.4006 193.791C89.4072 194.623 89.4629 194.307 89.0012 195.07C86.9083 196.064 78.9327 196.489 79.0031 192.741C79.0585 189.785 78.8607 186.346 79.0235 183.369C79.1681 180.726 87.3875 181.563 88.3401 183.488L88.0413 183.844C86.5759 184.323 83.2713 184.202 81.6057 184.209C81.8029 185.312 81.9653 186.291 82.2681 187.373C82.0716 188.141 81.7147 189.022 81.9917 189.692Z"/><path fill="#054D9A" transform="matrix(0.996552 0 0 0.993939 -40.8586 -38.7636)" d="M224.415 148.076C224.856 148.189 225.524 148.366 225.762 148.759C227.36 151.39 226.753 159.197 226.365 161.975C228.228 161.952 234.08 161.287 232.784 164.759L232.263 164.937C231.129 165.105 225.098 165.377 224.557 165.076C222.496 163.929 223.743 149.755 224.415 148.076Z"/><path fill="#11539C" transform="matrix(0.996552 0 0 0.993939 -40.8586 -38.7636)" d="M243.025 162.203C244.743 162.322 249.339 161.627 250.055 163.284C248.815 165.89 243.916 165.13 241.494 165.284C241.324 165.295 240.361 165.132 240.359 164.951C240.305 161.076 239.605 152.238 240.278 148.742L240.644 148.57C243.998 149.289 241.793 150.289 243.446 151.126C242.674 151.87 242.864 154.327 243.247 155.271C242.682 156.14 243.139 156.551 243.044 157.411C242.941 158.573 243.022 160.949 243.025 162.203Z"/><path fill="#054D9A" transform="matrix(0.996552 0 0 0.993939 -40.8586 -38.7636)" d="M69.7512 181.65C71.3617 181.47 77.2881 181.072 77.5503 183.266C76.2767 184.335 74.7043 184.145 73.0782 184.136C73.2311 187.807 73.2492 190.781 73.1749 194.435C72.8183 195.383 73.05 195.1 72.3529 195.677C71.4029 195.778 71.7594 195.873 71.0078 195.349C69.9279 193.578 70.3316 186.248 70.5352 183.994C69.1382 184.081 67.3186 184.5 66.8321 182.857C67.4501 181.683 68.556 181.758 69.7512 181.65Z"/><path fill="#054D9A" transform="matrix(0.996552 0 0 0.993939 -40.8586 -38.7636)" d="M287.147 181.602C288.607 181.33 290.856 181.484 291.858 182.723C291.781 184.515 288.738 184.025 287.431 183.957C287.811 188.045 288.264 191.963 286.788 195.858C285.5 195.435 285.293 195.149 285.153 193.76C284.814 190.407 285.414 187.394 284.943 184.017C283.51 184.003 281.823 184.279 280.925 183.039L281.015 182.593C282.3 181.671 285.444 181.743 287.147 181.602Z"/><path fill="#11539C" transform="matrix(0.996552 0 0 0.993939 -40.8586 -38.7636)" d="M132.693 181.582C134.448 181.447 138.69 181.312 139.646 183.111L139.284 183.566C138.267 184.119 136.875 184.027 135.687 184.051C136.027 188.147 135.93 190.65 135.589 194.769C135.33 195.194 135.217 195.261 134.856 195.594L134.361 195.529C132.717 193.509 133.382 186.775 133.598 184.196C132.229 184.246 129.666 184.611 129.159 183.021C129.999 181.842 131.362 181.775 132.693 181.582Z"/><path fill="#11539C" transform="matrix(0.996552 0 0 0.993939 -40.8586 -38.7636)" d="M193.188 192.253C193.134 190.127 192.771 183.845 193.404 182.182C194.853 181.606 201.546 181.429 202.402 183.098L202.145 183.697C201.198 184.07 196.861 184.105 195.549 184.156C195.477 185.162 195.273 186.357 195.665 187.224C196.584 187.724 197.96 187.534 199.184 187.565C200.124 187.852 200.866 187.962 201.517 188.665L201.575 189.18C200.236 190.534 197.249 190.142 195.563 189.93L195.45 190.721C194.113 191.073 194.117 191.56 193.188 192.253Z"/><path fill="#054D9A" transform="matrix(0.996552 0 0 0.993939 -40.8586 -38.7636)" d="M199.184 187.565C200.124 187.852 200.866 187.962 201.517 188.665L201.575 189.18C200.236 190.534 197.249 190.142 195.563 189.93C195.494 188.154 197.337 188.504 198.927 187.696L199.184 187.565Z"/><path fill="#054D9A" transform="matrix(0.996552 0 0 0.993939 -40.8586 -38.7636)" d="M205.684 181.345C208.09 182.602 206.814 192.025 206.889 194.62C206.912 195.405 206.15 195.735 205.579 196.099C203.865 193.729 203.65 183.528 205.684 181.345Z"/><path fill="#054D9A" transform="matrix(0.996552 0 0 0.993939 -40.8586 -38.7636)" d="M298.664 188.342C299.48 188.47 299.842 188.505 300.633 188.793L300.884 189.378C301.444 190.803 302.26 191.831 303.225 192.994C306.058 193.092 308.579 191.866 310.108 192.781C310.417 195.892 303.246 196.466 301.164 194.278C298.976 191.98 299.032 191.242 298.664 188.342Z"/><path fill="#11539C" transform="matrix(0.996552 0 0 0.993939 -40.8586 -38.7636)" d="M298.664 188.342C299.109 183.527 301.338 181.617 306.425 181.792C307.823 181.84 309.053 182.754 309.688 184.004L309.571 184.477C307.456 185.743 302.922 181.375 301.059 188.392C300.974 188.715 300.916 189.045 300.884 189.378L300.633 188.793C299.842 188.505 299.48 188.47 298.664 188.342Z"/><path fill="#054D9A" transform="matrix(0.996552 0 0 0.993939 -40.8586 -38.7636)" d="M48.853 181.379L49.611 181.976C50.3356 183.479 50.1048 192.766 49.8599 194.919C49.7949 195.492 49.2996 195.645 48.7909 195.965C47.1983 194.929 47.5982 185.774 47.6838 183.535C47.7193 182.606 48.2148 182.01 48.853 181.379Z"/><path fill="#054D9A" transform="matrix(0.996552 0 0 0.993939 -40.8586 -38.7636)" d="M294.182 181.35C294.439 181.394 294.899 181.474 295.072 181.629C296.676 183.075 296.265 194.486 295.397 195.808C295.051 195.623 294.839 195.461 294.521 195.239C293.13 192.732 293.399 184.228 294.182 181.35Z"/><path fill="#054D9A" transform="matrix(0.996552 0 0 0.993939 -40.8586 -38.7636)" d="M240.644 148.57C242.748 148.495 248.071 147.931 249.364 150.02C248.967 151.79 244.84 151.263 243.446 151.126C241.793 150.289 243.998 149.289 240.644 148.57Z"/><path fill="#3F967B" transform="matrix(0.996552 0 0 0.993939 -40.8586 -38.7636)" d="M111.035 113.638C110.474 117.432 108.962 122.611 108.777 126.032C107.933 125.182 107.582 125.12 106.765 124.019C108.063 119.777 108.975 117.543 111.035 113.638Z"/><path fill="#5E8C86" transform="matrix(0.996552 0 0 0.993939 -40.8586 -38.7636)" d="M170.007 145.554C171.455 145.039 174.512 143.876 175.862 143.615C173.869 145.595 172.455 146.252 170.002 147.471C169.085 147.904 168.197 148.35 167.238 148.68C166.085 148.085 166.269 148.327 165.99 147.119C166.913 146.835 168.732 145.975 170.007 145.554Z"/><path fill="#054D9A" transform="matrix(0.996552 0 0 0.993939 -40.8586 -38.7636)" d="M82.2681 187.373L82.5081 187.403C84.3607 187.624 86.7699 187.098 87.7648 188.266C87.8917 189.163 87.9731 188.822 87.5239 189.543C86.174 190.272 83.4655 189.959 81.9917 189.692C81.7147 189.022 82.0716 188.141 82.2681 187.373Z"/><path fill="#054D9A" transform="matrix(0.996552 0 0 0.993939 -40.8586 -38.7636)" d="M243.247 155.271C244.816 155.065 246.975 154.56 247.912 156.213C247.456 158.268 244.593 157.64 243.044 157.411C243.139 156.551 242.682 156.14 243.247 155.271Z"/><path fill="#5E8C86" transform="matrix(0.996552 0 0 0.993939 -40.8586 -38.7636)" d="M168.656 64.1718C170.79 62.6016 173.349 61.0715 175.691 59.8241C176.377 60.537 176.522 60.7114 177.412 61.2055C174.24 62.5136 172.001 63.4923 168.656 64.1718Z"/><path fill="#054D9A" transform="matrix(0.996552 0 0 0.993939 -40.8586 -38.7636)" d="M193.188 192.253C194.117 191.56 194.113 191.073 195.45 190.721C195.632 192.419 196.049 194.172 194.175 195.054C193.381 194.902 193.669 195.08 193.15 194.342C193.098 193.495 193.116 193.101 193.188 192.253Z"/><path fill="#054D9A" transform="matrix(0.996552 0 0 0.993939 -40.8586 -38.7636)" d="M323.298 192.275C323.629 193.14 324.02 193.885 323.802 194.784C323.303 195.448 323.573 195.275 322.819 195.51C321.624 195.048 321.489 194.647 321.214 193.338C322.05 192.506 322.065 192.419 323.298 192.275Z"/><path fill="#3D564A" fill-opacity="0.98823529" transform="matrix(0.996552 0 0 0.993939 -40.8586 -38.7636)" d="M228.704 94.0685C230.312 92.022 232.089 89.9963 233.736 87.9103C234.121 88.1979 234.615 88.5921 235.005 88.8509C232.791 90.5854 231.188 92.5017 228.704 94.0685Z"/><defs><linearGradient id="gradient_1" gradientUnits="userSpaceOnUse" x1="267.00024" y1="154.01529" x2="269.40131" y2="156.34399"><stop offset="0" stop-color="black" stop-opacity="0"/><stop offset="1" stop-color="#090008" stop-opacity="0.027450981"/></linearGradient></defs><path fill="url(#gradient_1)" transform="matrix(0.996552 0 0 0.993939 -40.8586 -38.7636)" d="M269.027 153.478L269.503 153.38L269.733 153.745C268.994 155.455 269.628 154.188 267.794 155.062L267.721 155.675C269.343 156.909 268.371 155.754 269.536 156.362L269.2 156.775C268.516 156.665 267.834 156.542 267.154 156.406C266.393 156.253 266.482 156.406 266.171 155.939C266.195 155.84 267.504 154.356 267.819 153.689L269.027 153.478Z"/></g></svg>