<svg version="1.1" xmlns="http://www.w3.org/2000/svg" style="display: block;" viewBox="0 0 1492 1300" width="373" height="325" preserveAspectRatio="none">
<defs>
	<linearGradient id="Gradient1" gradientUnits="userSpaceOnUse" x1="958.247" y1="746.77" x2="966.699" y2="758.222">
		<stop class="stop0" offset="0" stop-opacity="1" stop-color="rgb(213,237,252)"/>
		<stop class="stop1" offset="1" stop-opacity="1" stop-color="rgb(226,255,255)"/>
	</linearGradient>
	<linearGradient id="Gradient2" gradientUnits="userSpaceOnUse" x1="687.317" y1="754.255" x2="655.523" y2="752.134">
		<stop class="stop0" offset="0" stop-opacity="1" stop-color="rgb(27,74,134)"/>
		<stop class="stop1" offset="1" stop-opacity="1" stop-color="rgb(24,53,143)"/>
	</linearGradient>
</defs>
<path transform="translate(0,0)" fill="rgb(251,251,250)" d="M 0 0 L 1492 0 L 1492 1300 L 0 1300 L 0 0 z"/>
<path transform="translate(0,0)" fill="rgb(3,79,155)" d="M 1113.14 297.388 C 1122.13 297.564 1169.8 295.437 1182.01 299.936 C 1184.79 300.961 1188.29 308.666 1189.57 311.719 C 1222.33 389.837 1251.8 470.009 1284.77 547.963 C 1214.65 548.604 1224.5 557.565 1200.25 493.383 L 1174.26 493.643 L 1087.21 493.4 C 1067.4 555.814 1065.93 548.332 1002.04 548.025 L 1073.02 370.435 C 1081.82 348.386 1090.02 323.634 1101.12 302.625 C 1103.15 298.787 1109.12 298.031 1113.14 297.388 z"/>
<path transform="translate(0,0)" fill="rgb(251,251,250)" d="M 1142.64 350.591 C 1145.81 352.761 1177.63 436.22 1181.84 446.988 L 1147.25 446.806 L 1105.26 446.935 C 1109.44 438.314 1115.15 422.507 1118.7 413.336 C 1126.81 392.469 1134.79 371.554 1142.64 350.591 z"/>
<path transform="translate(0,0)" fill="rgb(3,79,155)" d="M 698.509 293.916 C 714.361 290.672 744.936 291.265 760.978 293.476 C 790.11 298.835 806.571 307.159 831.283 323.285 C 822.469 337.449 811.184 356.709 801.356 369.579 C 788.84 361.398 775.406 351.84 760.996 347.872 C 725.226 338.02 685.904 343.421 664.807 377.424 C 641.917 413.725 651.087 467.164 688.83 490.112 C 708.029 501.785 730.863 504.103 752.536 498.715 C 780.831 491.682 791.354 476.828 797.811 449.832 C 780.083 449.822 758.429 450.31 741.076 449.095 C 740.495 434.354 740.484 419.597 741.043 404.855 C 760.141 403.701 781.612 404.492 801.001 404.544 C 816.465 404.584 835.796 403.634 850.683 404.614 C 855.771 438.764 855.99 475.736 834.155 505.016 C 796.653 555.104 724.412 559.563 669.341 540.793 C 573.616 508.168 566.276 367.351 646.299 314.172 C 658.775 305.881 683.514 294.453 698.509 293.916 z"/>
<path transform="translate(0,0)" fill="rgb(18,73,140)" d="M 698.509 293.916 C 714.361 290.672 744.936 291.265 760.978 293.476 C 752.215 296.903 708.126 295.192 698.509 293.916 z"/>
<path transform="translate(0,0)" fill="rgb(3,79,155)" d="M 194.977 297.096 C 210.149 298.245 242.828 295.338 255.164 299.537 C 262.401 302 282.747 363.333 286.48 373.628 L 326.775 485.078 L 366.448 373.343 C 372.103 357.362 384.91 315.708 394.19 302.857 C 400.753 293.767 443.115 298.346 457.187 297.32 L 458.259 297.237 C 451.955 312.955 445.917 328.777 440.146 344.699 C 414.399 410.964 390.077 482.77 363.138 547.951 C 344.08 548.763 310.488 548.538 291.515 547.688 C 287.147 540.484 281.342 523.964 278.127 515.462 L 259.435 466.381 C 238.258 410.852 214.886 352.714 194.977 297.096 z"/>
<path transform="translate(0,0)" fill="rgb(3,157,97)" d="M 695.435 245.148 C 771.115 200.027 872.353 156.651 962.215 176.95 C 979.787 180.919 1003.78 191.573 1012.35 207.789 C 1042.5 264.845 978.344 324.361 940.257 355.848 C 937.708 353.532 937.481 353.188 936.248 349.971 C 988.69 259.626 930.205 208.905 840.578 214.228 C 787.256 217.395 748.254 226.943 699.177 247.607 L 695.435 245.148 z"/>
<path transform="translate(0,0)" fill="rgb(3,79,155)" d="M 482.772 297.956 C 501.711 297.945 521.03 297.744 539.921 298.439 C 541.773 361.343 539.818 425.011 540.573 488.005 C 540.807 507.522 540.658 527.895 539.951 547.374 C 525.121 548.899 498.433 548.032 483.025 547.797 C 481.348 521.128 482.601 482.645 482.625 454.802 L 482.772 297.956 z"/>
<path transform="translate(0,0)" fill="rgb(3,79,155)" d="M 974.589 361.824 L 975.767 361.863 C 979.613 367.424 977.582 527.598 977.484 548.042 L 920.75 548.008 C 918.918 548.118 918.918 547.852 917.32 546.825 C 915.573 539.205 916.145 509.404 916.155 500.085 L 916.054 407.162 C 930.809 395.719 959.903 370.572 974.589 361.824 z"/>
<path transform="translate(0,0)" fill="rgb(3,157,97)" d="M 438.29 479.914 C 425.814 552.23 456.227 590.913 526.737 603.587 C 569.442 611.264 608.852 604.892 650.474 594.027 C 659.641 591.637 673.331 586.207 680.935 584.419 C 683.924 584.909 684.578 585.015 687.58 584.721 C 636.635 613.153 575.047 634.859 516.247 632.667 C 427.743 629.367 403.119 566.888 429.529 489.944 C 432.882 487.765 435.861 483.21 438.29 479.914 z"/>
<path transform="translate(0,0)" fill="rgb(18,73,140)" d="M 1137.13 595.559 C 1155.01 590.894 1173.28 601.684 1177.82 619.6 C 1182.36 637.516 1171.45 655.704 1153.5 660.125 C 1135.73 664.504 1117.75 653.717 1113.25 635.973 C 1108.75 618.229 1119.42 600.179 1137.13 595.559 z"/>
<path transform="translate(0,0)" fill="rgb(251,251,250)" d="M 1141.43 605.139 C 1171.73 604.483 1177.52 638.155 1148.55 650.576 C 1139.57 651.457 1130.16 646.476 1126.44 638.102 C 1123.65 631.913 1123.52 624.853 1126.07 618.564 C 1129.41 610.33 1133.81 608.36 1141.43 605.139 z"/>
<path transform="translate(0,0)" fill="rgb(18,73,140)" d="M 1035.04 729.125 C 1049.34 724.568 1064.63 732.486 1069.16 746.799 C 1073.69 761.113 1065.75 776.386 1051.43 780.891 C 1037.14 785.384 1021.92 777.462 1017.4 763.186 C 1012.88 748.91 1020.77 733.67 1035.04 729.125 z"/>
<path transform="translate(0,0)" fill="rgb(251,251,250)" d="M 1037.83 735.977 C 1046.47 735.533 1053.52 737.615 1058.06 745.379 C 1060.67 749.887 1061.28 755.285 1059.73 760.262 C 1057.8 766.65 1054.03 770.215 1048.36 773.237 C 1026.59 778.304 1016.07 750.546 1037.83 735.977 z"/>
<path transform="translate(0,0)" fill="rgb(251,251,250)" d="M 659.14 727.962 C 670.063 726.333 680.883 731.491 686.495 741.003 C 692.107 750.515 691.389 762.48 684.68 771.253 C 677.971 780.026 666.612 783.853 655.962 780.929 C 643.602 777.535 635.307 765.951 636.075 753.157 C 636.842 740.363 646.463 729.854 659.14 727.962 z"/>
<path transform="translate(0,0)" fill="url(#Gradient2)" d="M 659.14 727.962 C 670.063 726.333 680.883 731.491 686.495 741.003 C 692.107 750.515 691.389 762.48 684.68 771.253 C 677.971 780.026 666.612 783.853 655.962 780.929 C 662.5 775.289 665.165 785.758 674.374 772.662 L 674.061 770.929 C 677.103 764.164 681.597 760.181 680.427 751.903 C 678.567 738.734 667.826 735.24 656.734 736.197 C 655.885 732.84 657.346 730.685 659.14 727.962 z"/>
<path transform="translate(0,0)" fill="rgb(18,73,140)" d="M 655.962 780.929 C 643.602 777.535 635.307 765.951 636.075 753.157 C 636.842 740.363 646.463 729.854 659.14 727.962 C 657.346 730.685 655.885 732.84 656.734 736.197 C 653.333 739.349 648.831 743.33 646.024 746.845 C 645.919 766.25 651.372 780.742 674.061 770.929 L 674.374 772.662 C 665.165 785.758 662.5 775.289 655.962 780.929 z"/>
<path transform="translate(0,0)" fill="rgb(3,79,155)" d="M 1245.01 633.014 C 1249.96 624.21 1260.42 599.676 1267.21 594.887 C 1270.64 594.385 1269.26 594.082 1272.33 596.202 C 1277.6 604.802 1279.85 647.453 1279.74 659.11 C 1277.08 660.137 1272.07 659.814 1269.01 659.817 C 1268.48 650.395 1268.12 641.993 1266.67 632.663 C 1265.71 627.216 1265.2 621.289 1264.62 615.757 C 1261.71 623.02 1252.2 648.858 1244.05 648.087 C 1238.35 644.332 1228.94 623.292 1225.32 616.066 C 1224.38 630.903 1222.17 644.369 1221.92 659.613 L 1210.12 659.356 C 1212.54 640.228 1212.75 612.835 1216.33 595.146 C 1219.01 594.957 1221.54 594.96 1224.23 594.938 C 1229.32 597.737 1242.51 626.492 1245.01 633.014 z"/>
<path transform="translate(0,0)" fill="rgb(3,79,155)" d="M 840.024 729.637 C 847.826 729.851 879.32 726.355 879.248 741.779 C 879.227 746.392 875.702 750.443 872.2 753.333 L 872.495 754.324 C 890.885 763.304 873.806 785.87 856.303 781.553 C 855.02 781.237 841.673 781.767 839.472 781.893 C 840.455 766.685 839.954 745.27 840.024 729.637 z"/>
<path transform="translate(0,0)" fill="rgb(251,251,250)" d="M 848.431 758.015 C 853.584 758.002 862.682 757.7 867.457 758.53 C 871.194 762.809 871.673 765.277 868.754 769.943 C 862.121 774.362 856.667 773.414 848.963 773.019 C 848.938 767.955 848.683 763.063 848.431 758.015 z"/>
<path transform="translate(0,0)" fill="rgb(251,251,250)" d="M 849.258 736.002 C 856.504 735.831 866.044 735.159 869.398 743.484 C 867.925 749.214 865.006 749.09 859.587 750.168 C 857.429 749.88 853.421 749.949 851.096 749.912 C 846.788 746.079 848.586 741.645 849.258 736.002 z"/>
<path transform="translate(0,0)" fill="rgb(18,73,140)" d="M 851.096 749.912 C 853.421 749.949 857.429 749.88 859.587 750.168 C 864.121 751.551 867.483 752.69 872.2 753.333 L 872.495 754.324 C 869.448 755.489 869.179 755.752 867.457 758.53 C 862.682 757.7 853.584 758.002 848.431 758.015 L 847.633 756.411 C 848.073 753.266 849.082 752.457 851.096 749.912 z"/>
<path transform="translate(0,0)" fill="rgb(3,79,155)" d="M 889.942 728.955 C 899.606 728.903 921.538 727.373 927.024 734.161 C 939.246 749.282 926.231 753.532 920.417 762.497 C 918.812 764.971 931.69 773.963 931.287 780.741 C 927.77 782.592 927.771 781.903 923.25 781.683 C 917.496 779.325 911.181 759.743 902.998 761.484 C 898.818 767.066 899.806 774.66 899.917 781.605 C 896.25 781.574 892.584 781.523 888.918 781.454 C 890.172 771.05 889.618 741.502 889.942 728.955 z"/>
<path transform="translate(0,0)" fill="rgb(251,251,250)" d="M 899.632 738.109 C 907.062 738.032 917.414 736.215 921.36 743.252 C 921.887 747.011 920.726 748.642 919.094 751.999 C 916.47 753.637 911.281 755.277 908.118 755.38 C 898.184 755.704 899.578 744.311 899.632 738.109 z"/>
<path transform="translate(0,0)" fill="rgb(3,79,155)" d="M 699.297 728.892 C 711.185 728.861 728.664 727.08 738.276 735.656 C 744.156 740.904 741.254 751.836 736.441 757.023 C 734.42 759.201 732.068 760.293 729.664 763.023 L 728.969 763.461 C 727.869 768.103 727.982 765.458 724.146 769.286 C 719.879 763.429 719.088 762.602 712.194 761.133 C 706.03 766.789 711.966 774.07 708.377 781.036 C 705.163 782.628 706.436 782.225 702.504 781.837 C 701.005 780.781 699.848 780.448 699.817 778.53 C 699.56 762.415 699.774 744.911 699.297 728.892 z"/>
<path transform="translate(0,0)" fill="rgb(251,251,250)" d="M 709.523 737.92 C 716.203 737.904 725.644 736.113 729.898 741.489 C 731.498 744.849 730.392 748.114 729.643 751.773 C 722.06 755.047 718.996 755.087 710.693 754.775 C 708.128 752.043 709.345 741.849 709.523 737.92 z"/>
<path transform="translate(0,0)" fill="rgb(18,73,140)" d="M 729.643 751.773 L 730.104 752.436 L 729.559 753.327 C 727.878 756.101 727.149 757.073 726.895 760.402 L 728.969 763.461 C 727.869 768.103 727.982 765.458 724.146 769.286 C 719.879 763.429 719.088 762.602 712.194 761.133 C 711.273 759.89 710.398 758.818 709.422 757.623 L 710.693 754.775 C 718.996 755.087 722.06 755.047 729.643 751.773 z"/>
<path transform="translate(0,0)" fill="rgb(3,79,155)" d="M 590.085 728.739 C 599.376 729.346 618.631 727.835 624.944 733.59 C 639.435 746.802 627.231 762.498 611.498 764.514 L 600.026 764.451 C 600.117 769.342 601.397 778.787 597.592 781.861 C 594.719 781.825 592.102 782.224 589.94 780.613 C 588.816 769.57 589.751 740.783 590.085 728.739 z"/>
<path transform="translate(0,0)" fill="rgb(251,251,250)" d="M 600.053 737.812 C 614.029 737.588 624.009 735.942 619.597 753.754 C 612.906 755.43 606.042 757.123 600.936 752.188 C 599.065 748.159 599.833 742.409 600.053 737.812 z"/>
<path transform="translate(0,0)" fill="rgb(3,79,155)" d="M 1054.86 595.119 C 1063.41 594.408 1078.38 596.139 1082.39 606.566 C 1083.13 608.482 1082.41 608.836 1081.36 610.327 C 1076.92 612.451 1066.03 607.304 1059.45 605.597 C 1052.07 608.112 1046.81 610.192 1042.45 617.116 C 1039.42 622.002 1038.53 627.925 1039.99 633.489 C 1041.4 638.79 1044.83 643.328 1049.55 646.129 C 1058.33 651.308 1064.7 649.465 1073.76 647.232 C 1075.35 646.105 1075.72 646.244 1077.68 645.771 C 1080.52 646.938 1079.53 646.199 1081.23 649.246 C 1080.39 663.621 1055.41 662.642 1045.71 657.883 C 1037.81 653.938 1031.84 646.965 1029.17 638.551 C 1026.34 629.799 1027.21 620.27 1031.58 612.176 C 1037.05 601.97 1044.32 598.258 1054.86 595.119 z"/>
<path transform="translate(0,0)" fill="rgb(3,79,155)" d="M 960.745 595.09 C 967.168 595.108 993.988 593.943 997.942 596.399 C 1000.36 609.2 979.583 605.236 970.964 605.206 C 971.215 610.407 971.372 615.612 971.435 620.819 C 977.099 620.777 986.594 619.978 991.137 622.332 C 993.207 625.169 992.643 623.844 992.919 627.749 C 989.89 631.535 976.712 629.643 971.279 630.27 C 971.502 636.292 971.295 643.058 971.245 649.141 C 976.83 649.07 993.971 648.019 998.02 650.913 C 998.377 654.229 998.194 655.347 997.788 658.679 C 994.6 661.086 966.105 659.982 960.354 659.909 C 960.362 638.302 960.493 616.695 960.745 595.09 z"/>
<path transform="translate(0,0)" fill="rgb(3,79,155)" d="M 823.813 595.104 C 832.418 595.112 853.379 594.356 860.765 595.646 C 862.551 598.84 861.956 599.234 861.962 603.172 C 857.749 606.491 841.328 605.153 834.951 605.019 L 834.849 620.773 C 839.636 620.875 850.953 620.925 855.08 622.493 L 856.316 625.512 C 853.41 634.911 835.844 622.229 834.973 636.75 C 834.837 641.241 834.655 643.403 835.528 647.837 C 839.783 652.044 854.052 646.686 861.058 649.851 C 863.128 653.276 862.951 655.442 860.894 658.829 C 857.482 661.201 830.078 659.923 823.881 659.779 L 823.813 595.104 z"/>
<path transform="translate(0,0)" fill="rgb(18,73,140)" d="M 1080.21 728.601 C 1097.1 728.87 1131.55 725.911 1115.07 758.067 C 1113.17 761.777 1106.34 763.388 1102.24 763.83 C 1096.78 764.432 1094.52 764.573 1089.06 764.292 C 1089.1 768.83 1089.56 777.227 1088.3 781.205 C 1085.74 781.999 1084.59 781.617 1081.84 781.275 C 1078.45 776.877 1080.11 737.225 1080.21 728.601 z"/>
<path transform="translate(0,0)" fill="rgb(251,251,250)" d="M 1088.85 738.213 C 1095.44 737.606 1103.97 736.034 1108.89 741.068 C 1111.17 745.933 1109.74 749.408 1108.32 754.427 C 1102.52 755.395 1095.07 754.838 1089.07 754.629 L 1088.85 738.213 z"/>
<path transform="translate(0,0)" fill="rgb(18,73,140)" d="M 365.057 728.897 C 376.668 729.04 386.29 729.301 397.834 730.26 C 406.543 738.518 407.435 740.584 405.655 752.449 C 402.654 755.734 400.16 759.019 396.13 760.834 L 394.82 761.106 C 389.186 759.797 385.919 760.046 380.235 761.683 L 375.283 762.613 L 373.846 762.585 C 374.066 770.582 374.894 774.713 371.65 782.092 L 368.337 782.874 C 363.687 776.714 364.94 765.886 365.214 758.393 C 365.005 748.562 364.953 738.729 365.057 728.897 z"/>
<path transform="translate(0,0)" fill="rgb(18,73,140)" d="M 365.214 758.393 C 365.679 760.803 365.999 763.336 367.074 765.516 C 369.694 763.337 370.4 762.664 373.846 762.585 C 374.066 770.582 374.894 774.713 371.65 782.092 L 368.337 782.874 C 363.687 776.714 364.94 765.886 365.214 758.393 z"/>
<path transform="translate(0,0)" fill="rgb(251,251,250)" d="M 373.981 738.046 C 380.617 737.882 390.857 736.508 395.696 740.581 C 398.216 746.638 394.251 753.685 387.735 754.951 C 385.859 754.79 383.298 754.893 381.349 754.913 C 377.096 754.212 376.746 754.906 374.206 752.211 C 372.81 748.085 374.115 742.891 373.981 738.046 z"/>
<path transform="translate(0,0)" fill="rgb(18,73,140)" d="M 961.907 728.731 C 964.366 728.975 966.587 728.823 967.937 731.48 C 973.162 741.77 985.788 769.573 988.416 779.982 L 987.876 781.498 C 984.939 782.185 984.558 782.164 981.584 781.627 C 977.538 779.065 976.586 773.831 975.009 769.088 L 950.742 769.17 C 949.367 775.237 948.352 781.699 940.581 781.398 C 937.42 777.376 940.394 772.977 942.665 768.775 C 945.151 761.36 950.092 750.41 953.205 742.915 C 955.439 738.045 957.717 731.762 961.907 728.731 z"/>
<path transform="translate(0,0)" fill="url(#Gradient1)" d="M 962.086 740.051 C 965.793 745.484 968.854 754.456 971.525 760.831 C 965.691 760.389 959.848 760.099 953.999 759.961 C 956.446 756.277 958.672 750.575 960.479 746.373 L 962.086 740.051 z"/>
<path transform="translate(0,0)" fill="rgb(3,79,155)" d="M 953.205 742.915 C 955.439 738.045 957.717 731.762 961.907 728.731 C 961.946 732.505 962.006 736.278 962.086 740.051 L 960.479 746.373 C 958.36 744.993 955.558 743.866 953.205 742.915 z"/>
<path transform="translate(0,0)" fill="rgb(3,79,155)" d="M 473.061 729.01 C 480.32 728.949 507.827 727.391 511.556 731.361 L 511.439 734.509 C 507.233 737.707 489.355 736.86 483.022 736.874 C 482.98 741.952 483.141 745.814 483.509 750.885 C 490.539 750.71 502.51 749.509 507.99 753.896 C 505.32 759.488 488.311 758.21 482.726 758.149 C 483.155 762.252 483.002 768.817 483.026 773.139 C 489.94 773.079 505.322 771.99 510.75 775.402 C 512.005 778.359 511.934 777.022 510.744 780.357 C 504.546 782.751 480.859 781.834 472.958 781.748 C 472.652 764.495 472.995 746.332 473.061 729.01 z"/>
<path transform="translate(0,0)" fill="rgb(18,73,140)" d="M 749.689 595.483 C 758.482 595.899 789.322 593.325 794.73 596.471 C 796.22 600.265 795.958 601.604 793.283 604.304 C 789.249 605.946 782.151 605.177 777.542 605 L 777.328 640.482 C 777.334 646.96 777.399 653.438 777.522 659.914 L 765.805 659.706 L 765.962 605.237 C 763.157 605.294 760.353 605.323 757.548 605.325 C 753.255 605.312 751.831 605.49 749.012 602.647 C 748.547 599.412 748.857 598.678 749.689 595.483 z"/>
<path transform="translate(0,0)" fill="rgb(18,73,140)" d="M 1265.01 734.938 C 1267.29 730.715 1266.01 731.963 1269.7 729.597 C 1271.79 729.526 1273.62 729.277 1275.24 731.219 C 1282.33 739.717 1293.79 769.718 1296.34 779.515 L 1295.87 781.282 C 1292.97 782.058 1292.61 782.076 1289.68 781.452 C 1285.97 779.135 1284.88 773.561 1283.38 769.139 C 1275.6 769.233 1267.63 769.234 1259.87 769.439 C 1259.74 764.929 1260.47 763.804 1263.13 760.322 L 1263.06 759.247 L 1256.33 756.529 L 1265.01 734.938 z"/>
<path transform="translate(0,0)" fill="rgb(251,251,250)" d="M 1265.01 734.938 C 1266.74 738.578 1267.17 738.962 1270.17 741.679 C 1273.86 744.842 1277.73 755.195 1279.95 760.156 C 1277.21 760.236 1265.03 760.783 1263.13 760.322 L 1263.06 759.247 L 1256.33 756.529 L 1265.01 734.938 z"/>
<path transform="translate(0,0)" fill="rgb(3,79,155)" d="M 1265.01 734.938 C 1266.74 738.578 1267.17 738.962 1270.17 741.679 C 1267.98 748.486 1266.6 752.85 1263.06 759.247 L 1256.33 756.529 L 1265.01 734.938 z"/>
<path transform="translate(0,0)" fill="rgb(18,73,140)" d="M 895.611 595.043 C 899.155 595.147 902.631 594.611 905.234 596.646 C 906.358 602.521 905.857 640.106 905.873 647.999 C 913.959 648.126 923.822 646.204 929.966 650.687 C 931.673 654.713 930.896 654.867 930.363 659.834 L 894.987 659.862 C 894.146 644.623 894.483 610.312 895.611 595.043 z"/>
<path transform="translate(0,0)" fill="rgb(3,79,155)" d="M 317.022 729.004 C 327.819 729.036 344.031 728.549 354.396 730.489 L 355.565 732.263 L 354.923 734.349 C 349.754 737.939 334.157 736.938 327.03 736.935 L 327.024 750.966 C 326.236 753.568 324.938 755.564 326.634 758.037 C 327.213 761.681 327.046 769.316 327.072 773.292 C 332.881 773.222 350.723 772.086 355.427 775.587 C 356.503 776.388 355.971 777.883 355.843 779.628 C 351.321 783 323.452 781.623 316.991 781.488 C 317.313 764.306 317.029 746.253 317.022 729.004 z"/>
<path transform="translate(0,0)" fill="rgb(3,79,155)" d="M 772.093 728.133 C 778.968 728.078 805.164 727.25 809.513 730.228 L 809.771 732.656 L 808.1 734.549 C 802.145 736.958 789.339 736.101 782.5 736.014 C 782.437 741.066 782.286 746.116 782.046 751.162 C 787.924 751.593 799.582 750.868 803.943 752.253 C 806.023 754.797 805.427 753.699 805.589 757.524 C 801.531 761.663 788.255 760.206 782.316 760.019 C 782.837 765.611 784.03 776.592 780.151 780.734 C 777.019 781.522 776.686 781.331 773.409 780.792 C 771.011 777.547 772.12 735.844 772.093 728.133 z"/>
<path transform="translate(0,0)" fill="rgb(18,73,140)" d="M 1214.4 728.227 C 1221.38 727.593 1238.07 728.89 1240.2 736.664 C 1236.42 744.675 1226.2 734.993 1220.07 735.643 C 1208.12 736.91 1203.09 748.782 1205.05 759.426 C 1207.89 774.866 1217.15 775.209 1230.25 772.309 C 1233.14 770.542 1234.7 769.53 1237.83 770.843 L 1238.49 772.987 C 1235.28 782.842 1218.16 784.325 1210.57 780.309 C 1186.85 767.747 1190.4 737.919 1214.4 728.227 z"/>
<path transform="translate(0,0)" fill="rgb(18,73,140)" d="M 417.004 732.163 L 417.832 729.191 C 422.998 727.14 425.994 730.856 429.064 734.742 C 437.223 745.071 444.92 756.397 452.493 767.138 C 452.353 760.282 451.146 734.957 453.621 730.39 C 456.869 728.701 455.529 728.87 458.985 729.107 C 461.971 732.176 462.622 777.266 460.109 780.884 C 456.781 781.7 456.277 781.555 452.904 780.822 C 446.591 776.545 432.089 752.921 426.136 745.189 C 424.384 738.607 426.458 735.553 423.161 731.166 C 419.294 730.536 420.901 730.378 417.004 732.163 z"/>
<path transform="translate(0,0)" fill="rgb(18,73,140)" d="M 248.407 766.163 C 248.237 760.893 248.08 732.662 250.083 729.311 C 253.09 728.065 251.599 728.105 254.705 729.266 C 259.274 735.034 259.167 774.864 256.203 781.373 C 246.61 784.333 226.897 750.397 222.17 742.273 C 222.61 740.151 222.552 740.276 223.747 738.469 L 228.82 738.597 C 235.327 747.663 242.173 756.943 248.407 766.163 z"/>
<path transform="translate(0,0)" fill="rgb(3,79,155)" d="M 1123.63 728.099 C 1131.64 727.895 1163.49 726.028 1167.87 729.797 C 1167.79 733.576 1168.35 732.337 1166.25 735.01 C 1162.32 736.872 1155.27 736.183 1150.66 736.085 L 1150.43 767.751 C 1150.54 772.134 1151.39 778.478 1148.98 781.688 C 1145.46 781.521 1143.04 782.029 1140.49 780.323 C 1139.17 771.293 1140.88 747.979 1140.21 735.949 C 1135.78 736.125 1129.97 736.813 1126.06 735.102 C 1123.35 732.104 1124.16 732.821 1123.63 728.099 z"/>
<path transform="translate(0,0)" fill="rgb(3,79,155)" d="M 265.844 728.068 C 274.771 727.822 303.903 725.526 309.547 730.809 C 309.596 733.604 309.796 732.556 307.494 735.215 C 304.563 736.407 296.276 736.034 292.633 736.034 C 292.358 746.043 292.296 756.233 292.137 766.261 C 292.163 770.174 292.718 778.801 291.071 781.696 C 287.698 781.825 286.336 782.092 283.287 780.572 C 281.804 776.365 282.716 743.946 282.28 735.72 C 278.148 735.916 271.431 736.724 268.017 734.972 C 265.556 731.595 266.306 733.001 265.844 728.068 z"/>
<path transform="translate(0,0)" fill="rgb(18,73,140)" d="M 517.257 728.144 C 526.386 727.893 552.689 726.544 560.219 728.62 C 561.929 731.7 561.646 732.635 559.345 734.964 C 555.164 736.617 547.539 736.09 542.768 736.056 L 542.682 765.25 C 542.624 769.778 543.085 777.876 540.972 781.569 C 537.832 782.242 539.245 782.467 536.557 781.176 C 532.928 775.406 534.2 745.006 534.07 735.725 C 529.144 735.582 523.997 736.897 519.694 735.341 C 516.991 732.69 517.758 732.586 517.257 728.144 z"/>
<path transform="translate(0,0)" fill="rgb(3,79,155)" d="M 818.238 728.116 C 821.506 727.996 823.765 727.495 826.447 729.167 C 827.632 735.882 827.854 773.661 826.807 781.235 L 825.669 781.357 C 821.972 781.73 820.696 782.19 818.363 780.281 C 817.012 769.697 817.804 739.716 818.238 728.116 z"/>
<path transform="translate(0,0)" fill="rgb(3,79,155)" d="M 191.651 727.961 C 195.213 728.251 196.322 728.112 199.519 729.815 C 200.75 735.493 200.757 773.283 200.651 781.146 C 199.721 781.261 198.79 781.363 197.857 781.454 C 194.262 781.777 193.61 782.082 191.409 780.26 C 190.159 770.462 190.921 738.605 191.651 727.961 z"/>
<path transform="translate(0,0)" fill="rgb(3,79,155)" d="M 222.17 742.273 C 219.07 750.511 224.577 775.273 219.474 781.156 C 216.563 782.399 217.592 782.475 215.169 781.609 C 211.827 777.055 212.17 735.794 215.601 729.948 C 221.999 725.738 225.712 733.798 228.82 738.597 L 223.747 738.469 C 222.552 740.276 222.61 740.151 222.17 742.273 z"/>
<path transform="translate(0,0)" fill="rgb(3,79,155)" d="M 417.004 732.163 C 420.901 730.378 419.294 730.536 423.161 731.166 C 426.458 735.553 424.384 738.607 426.136 745.189 C 423.337 751.973 429.066 773.134 422.961 780.624 C 419.765 782.042 420.973 782.051 418.012 781.311 C 415.931 777.797 416.196 738.463 417.004 732.163 z"/>
<path transform="translate(0,0)" fill="rgb(18,73,140)" d="M 1176.1 727.493 C 1180.2 728.004 1180.59 727.355 1183.31 729.79 C 1184.54 738.724 1184.4 773.295 1182.9 782.448 C 1179.9 782.26 1179.64 782.27 1176.85 781.242 C 1174.08 776.281 1175.91 736.245 1176.1 727.493 z"/>
<path transform="translate(0,0)" fill="rgb(18,73,140)" d="M 380.235 761.683 C 385.919 760.046 389.186 759.797 394.82 761.106 C 396.555 767.169 407.119 776.619 407.014 781.04 C 394.761 788.405 391.274 765.337 380.235 761.683 z"/>
<path transform="translate(0,0)" fill="rgb(18,73,140)" d="M 1259.87 769.439 C 1257.92 774.45 1255.3 784.081 1247.91 780.894 C 1246.29 775.586 1253.75 762.098 1256.33 756.529 L 1263.06 759.247 L 1263.13 760.322 C 1260.47 763.804 1259.74 764.929 1259.87 769.439 z"/>
<path transform="translate(0,0)" fill="rgb(18,73,140)" d="M 728.969 763.461 L 729.664 763.023 C 734.345 768.682 740.465 774.314 740.589 781.469 L 739.575 782.88 C 732.046 783.606 727.247 774.636 724.146 769.286 C 727.982 765.458 727.869 768.103 728.969 763.461 z"/>
<path transform="translate(0,0)" fill="rgb(3,79,155)" d="M 327.024 750.966 C 334.04 750.839 344.785 749.714 350.24 754.059 C 347.966 759.276 331.74 758.121 326.634 758.037 C 324.938 755.564 326.236 753.568 327.024 750.966 z"/>
<path transform="translate(0,0)" fill="rgb(79,113,110)" d="M 429.529 489.944 C 432.344 479.929 441.772 459.915 447.314 451.206 C 445.647 458.588 440.766 472.309 438.29 479.914 C 435.861 483.21 432.882 487.765 429.529 489.944 z"/>
<path transform="translate(0,0)" fill="rgb(46,111,82)" d="M 936.248 349.971 C 937.481 353.188 937.708 353.532 940.257 355.848 C 931.772 362.717 923.537 369.889 915.568 377.351 C 917.748 373.255 932.053 355.674 936.248 349.971 z"/>
<path transform="translate(0,0)" fill="rgb(79,113,110)" d="M 695.435 245.148 L 699.177 247.607 L 665.919 263.042 L 666.425 262.672 C 674.488 256.668 686.471 250.272 695.435 245.148 z"/>
<path transform="translate(0,0)" fill="rgb(26,40,51)" d="M 1052.34 714.941 L 1053.92 715.429 L 1054.09 716.93 C 1050.91 720.196 1046.85 721.948 1042.78 724.06 C 1040.77 723.328 1041.64 723.922 1040.29 721.986 C 1041.76 718.298 1048.8 716.256 1052.34 714.941 z"/>
<path transform="translate(0,0)" fill="rgb(79,113,110)" d="M 680.935 584.419 C 689.162 580.742 695.143 578.045 704.005 576.312 C 700.843 578.083 690.63 583.745 687.58 584.721 C 684.578 585.015 683.924 584.909 680.935 584.419 z"/>
</svg>